<svg width="306" height="314" viewBox="0 0 306 314" fill="none" xmlns="http://www.w3.org/2000/svg">
<g filter="url(#filter0_d)">
<path d="M296.5 153C296.5 234.526 232.19 300.5 153 300.5C73.8104 300.5 9.5 234.526 9.5 153C9.5 71.4739 73.8104 5.5 153 5.5C232.19 5.5 296.5 71.4739 296.5 153Z" stroke="#2C043F" stroke-width="15"/>
</g>
<g filter="url(#filter1_d)">
<path d="M156.5 159L244.402 267H68.5984L156.5 159Z" fill="#2C043F"/>
<path d="M156.5 159L244.402 267H68.5984L156.5 159Z" stroke="#2C043F"/>
</g>
<g filter="url(#filter2_d)">
<path d="M155 158.031C404.931 242.883 259.138 96.0321 155 12V158.031Z" fill="#2C043F"/>
<path d="M155 158.65C-102.176 267.468 47.8435 106.224 155 12M155 12C259.138 96.0321 404.931 242.883 155 158.031V12Z" fill="#2C043F" stroke="#2C043F" stroke-width="5"/>
</g>
<defs>
<filter id="filter0_d" x="0" y="0" width="306" height="314" filterUnits="userSpaceOnUse" color-interpolation-filters="sRGB">
<feFlood flood-opacity="0" result="BackgroundImageFix"/>
<feColorMatrix in="SourceAlpha" type="matrix" values="0 0 0 0 0 0 0 0 0 0 0 0 0 0 0 0 0 0 127 0"/>
<feOffset dy="4"/>
<feDropShadow dx="5" dy="5" stdDeviation="1" />
<feGaussianBlur stdDeviation="3.5"/>
<feColorMatrix type="matrix" values="0 0 0 0 0 0 0 0 0 0 0 0 0 0 0 0 0 0 0.25 0"/>
<feBlend mode="normal" in2="BackgroundImageFix" result="effect1_dropShadow"/>
<feBlend mode="normal" in="SourceGraphic" in2="effect1_dropShadow" result="shape"/>
</filter>
<filter id="filter1_d" x="63.5468" y="158.208" width="185.906" height="117.292" filterUnits="userSpaceOnUse" color-interpolation-filters="sRGB">
<feFlood flood-opacity="0" result="BackgroundImageFix"/>
<feColorMatrix in="SourceAlpha" type="matrix" values="0 0 0 0 0 0 0 0 0 0 0 0 0 0 0 0 0 0 127 0"/>
<feOffset dy="4"/>
<feGaussianBlur stdDeviation="2"/>
<feColorMatrix type="matrix" values="0 0 0 0 0 0 0 0 0 0 0 0 0 0 0 0 0 0 0.25 0"/>
<feBlend mode="normal" in2="BackgroundImageFix" result="effect1_dropShadow"/>
<feBlend mode="normal" in="SourceGraphic" in2="effect1_dropShadow" result="shape"/>
</filter>
<filter id="filter2_d" x="6.5" y="8.73175" width="293" height="196.768" filterUnits="userSpaceOnUse" color-interpolation-filters="sRGB">
<feFlood flood-opacity="0" result="BackgroundImageFix"/>
<feColorMatrix in="SourceAlpha" type="matrix" values="0 0 0 0 0 0 0 0 0 0 0 0 0 0 0 0 0 0 127 0"/>
<feOffset dy="4"/>
<feGaussianBlur stdDeviation="2"/>
<feColorMatrix type="matrix" values="0 0 0 0 0 0 0 0 0 0 0 0 0 0 0 0 0 0 0.25 0"/>
<feBlend mode="normal" in2="BackgroundImageFix" result="effect1_dropShadow"/>
<feBlend mode="normal" in="SourceGraphic" in2="effect1_dropShadow" result="shape"/>
</filter>
</defs>
</svg>
